HIERARCHY
ROOT Hips
{
	OFFSET 0.000000 0.000000 0.000000
	CHANNELS 6 Xposition Yposition Zposition Zrotation Yrotation Xrotation 
	JOINT LHipJoint
	{
		OFFSET 0.000000 0.000000 0.000000
		CHANNELS 3 Zrotation Yrotation Xrotation
		JOINT LeftUpLeg
		{
			OFFSET 1.363060 -1.794630 0.839290
			CHANNELS 3 Zrotation Yrotation Xrotation
			JOINT LeftLeg
			{
				OFFSET 2.448110 -6.726130 0.000000
				CHANNELS 3 Zrotation Yrotation Xrotation
				JOINT LeftFoot
				{
					OFFSET 2.562200 -7.039590 0.000000
					CHANNELS 3 Zrotation Yrotation Xrotation
					JOINT LeftToeBase
					{
						OFFSET 0.157640 -0.433110 2.322550
						CHANNELS 3 Zrotation Yrotation Xrotation
						End Site
						{
							OFFSET 0.000000 0.000000 0.000000
						}
					}
				}
			}
		}
	}
	JOINT RHipJoint
	{
		OFFSET 0.000000 0.000000 0.000000
		CHANNELS 3 Zrotation Yrotation Xrotation
		JOINT RightUpLeg
		{
			OFFSET -1.305520 -1.794630 0.839290
			CHANNELS 3 Zrotation Yrotation Xrotation
			JOINT RightLeg
			{
				OFFSET -2.542530 -6.985550 0.000000
				CHANNELS 3 Zrotation Yrotation Xrotation
				JOINT RightFoot
				{
					OFFSET -2.568260 -7.056230 0.000000
					CHANNELS 3 Zrotation Yrotation Xrotation
					JOINT RightToeBase
					{
						OFFSET -0.164730 -0.452590 2.363150
						CHANNELS 3 Zrotation Yrotation Xrotation
						End Site
						{
							OFFSET 0.000000 0.000000 0.000000
						}
					}
				}
			}
		}
	}
}
MOTION
Frames: 25
Frame Time: 0.008333
5.081458 16.498806 -6.812506 -174.973240 28.967912 -168.860833 -13.932538 5.174850 -0.311036 -5.678491 9.562313 -0.685029 -0.483328 3.045306 40.609177 0.330531 -15.582085 19.389048 -6.741800 -0.000000 -65.640800 6.605175 -0.497774 2.572503 13.953507 9.357360 -36.278816 1.899927 -1.994397 35.110544 -0.838299 -2.786545 -5.461070 -0.444099 -0.000000 -33.353700
5.157399 16.444378 -6.947906 -174.609486 28.280915 -169.215120 -14.188031 5.134281 -0.556284 -4.336390 10.746399 -2.036063 -0.286177 3.238951 44.216089 0.503764 -15.250359 20.936302 -7.088100 -0.000000 -63.374500 6.575553 -0.530204 2.280033 14.667214 8.592351 -36.040745 1.819499 -2.142227 37.362794 -0.951890 -3.004047 -7.019203 -0.298500 0.000001 -33.303100
5.228402 16.390441 -7.078542 -174.161618 27.612737 -169.549831 -14.447973 5.053568 -0.819257 -2.941790 11.865554 -3.431654 -0.090307 3.447428 47.860283 0.680836 -14.303153 22.218092 -7.074400 -0.000000 -60.479900 6.514707 -0.583117 1.959919 15.508277 7.738177 -35.656487 1.770728 -2.267151 39.330105 -1.051544 -3.173007 -8.490981 -0.147000 0.000001 -33.396700
5.294780 16.337789 -7.204695 -173.634103 26.980632 -169.856044 -14.708613 4.933424 -1.096512 -1.516177 12.923009 -4.874673 0.106300 3.675927 51.510137 0.858814 -12.712261 23.118790 -6.635400 0.000000 -57.019900 6.420490 -0.658153 1.626394 16.455318 6.838568 -35.131519 1.752932 -2.369472 40.990845 -1.135661 -3.276621 -9.873624 0.006000 -0.000000 -33.539100
5.357557 16.287452 -7.326298 -173.056960 26.398194 -170.143421 -14.957744 4.777498 -1.382549 -0.112114 13.909275 -6.348712 0.307073 3.926385 55.114728 1.037039 -10.505778 23.553913 -5.769500 0.000000 -53.375901 6.302494 -0.751346 1.289252 17.457930 5.918455 -34.476575 1.762119 -2.451141 42.351096 -1.202280 -3.295213 -11.172473 0.155800 0.000000 -33.640800
5.418020 16.240440 -7.443483 -172.461736 25.874042 -170.418266 -15.184718 4.590891 -1.671863 1.223841 14.820305 -7.847966 0.516268 4.198095 58.634497 1.215061 -7.779499 23.449053 -4.543799 0.000000 -49.710900 6.171349 -0.857437 0.959612 18.466689 5.006978 -33.709413 1.793420 -2.514315 43.427438 -1.252426 -3.227630 -12.391650 0.297000 0.000000 -33.629100
5.476732 16.197691 -7.557104 -171.855216 25.411650 -170.669081 -15.387348 4.377699 -1.958518 2.473652 15.659267 -9.383702 0.737711 4.488783 62.040549 1.390689 -4.697526 22.740743 -3.090600 0.000000 -45.974000 6.029385 -0.973243 0.651848 19.458674 4.151052 -32.850316 1.843071 -2.560617 44.232307 -1.291817 -3.102244 -13.525955 0.425100 -0.000000 -33.464500
5.535227 16.160312 -7.667255 -171.278076 25.009824 -170.907482 -15.552827 4.146595 -2.235666 3.581194 16.414608 -10.950399 0.972298 4.791111 65.290234 1.561501 -1.446199 21.429202 -1.576201 -0.000000 -42.274200 5.893898 -1.090166 0.372883 20.378378 3.364998 -31.926358 1.903807 -2.592782 44.804185 -1.323651 -2.937187 -14.577815 0.538200 0.000000 -33.132300
5.594242 16.129199 -7.774706 -170.744672 24.664255 -171.126039 -15.678066 3.904199 -2.496412 4.522469 17.081541 -12.560275 1.218046 5.096833 68.352581 1.722854 1.768607 19.540935 -0.174600 0.000000 -38.536900 5.771542 -1.203112 0.131833 21.203167 2.679054 -30.965587 1.970084 -2.612617 45.172456 -1.354600 -2.773283 -15.542401 0.637500 0.000000 -32.651000
5.654445 16.105141 -7.880085 -170.269774 24.367234 -171.318774 -15.760537 3.657175 -2.733478 5.275051 17.652147 -14.224517 1.469021 5.395854 71.196053 1.869305 4.761061 17.148490 0.969500 0.000001 -34.720299 5.668943 -1.307443 -0.065179 21.915880 2.113535 -29.996814 2.036330 -2.621788 45.369277 -1.390678 -2.650329 -16.415407 0.727100 -0.000000 -32.062900
5.716217 16.088698 -7.983975 -169.864436 24.108534 -171.481113 -15.799002 3.411724 -2.939432 5.821003 18.115135 -15.951252 1.715865 5.677424 73.791556 1.994904 7.384404 14.358062 1.764300 0.000000 -30.797900 5.591679 -1.399699 -0.215319 22.505502 1.677055 -29.046460 2.097770 -2.621698 45.426050 -1.436504 -2.601234 -17.194576 0.812300 -0.000000 -31.424500
5.779724 16.080272 -8.086975 -169.534571 23.876476 -171.608573 -15.794720 3.172611 -3.107483 6.154329 18.459737 -17.744966 1.946873 5.931628 76.113275 2.093541 9.537977 11.296182 2.179100 0.000000 -26.770900 5.541922 -1.478343 -0.318305 22.971728 1.370062 -28.134584 2.151095 -2.613233 45.366774 -1.495133 -2.649849 -17.877277 0.898800 0.000000 -30.800800
5.844796 16.080088 -8.189572 -169.280747 23.658867 -171.699337 -15.750451 2.943434 -3.231963 6.277586 18.675118 -19.601436 2.149713 6.150032 78.137878 2.159570 11.167994 8.097531 2.241200 0.000000 -22.672700 5.519841 -1.543421 -0.377405 23.319485 1.180070 -27.272439 2.194816 -2.596923 45.207834 -1.567141 -2.804544 -18.462072 0.990200 -0.000000 -30.253201
5.911177 16.088104 -8.292130 -169.102201 23.444699 -171.757527 -15.669780 2.726804 -3.309152 6.203485 18.753770 -21.505123 2.313182 6.326293 79.845153 2.188579 12.261889 4.894597 2.021799 0.000000 -18.572400 5.524123 -1.596262 -0.398877 23.556845 1.083442 -26.458854 2.229234 -2.572854 44.955355 -1.650556 -3.057679 -18.947914 1.086900 -0.000000 -29.832600
5.978457 16.104199 -8.394991 -168.995582 23.224817 -171.788693 -15.557343 2.523907 -3.338081 5.952574 18.692460 -23.431687 2.428656 6.456556 81.217006 2.178319 12.841831 1.809138 1.617100 -0.000000 -14.576900 5.551864 -1.638655 -0.392174 23.693039 1.048562 -25.683424 2.256483 -2.540681 44.606389 -1.741005 -3.385987 -19.335394 1.186300 -0.000001 -29.571500
6.046110 16.128071 -8.498428 -168.954828 22.993802 -171.803004 -15.417874 2.335235 -3.319934 5.552490 18.494271 -25.347041 2.491036 6.539113 82.239034 2.129701 12.959334 -1.053944 1.127899 -0.000000 -10.823400 5.599512 -1.673012 -0.367928 23.738082 1.039585 -24.923981 2.280140 -2.499638 44.148033 -1.832434 -3.756138 -19.624893 1.282700 0.000000 -29.481900
6.113619 16.159315 -8.602565 -168.974110 22.748783 -171.813668 -15.255850 2.160302 -3.258074 5.034095 18.169057 -27.212577 2.499141 6.573962 82.901082 2.047430 12.691002 -3.612857 0.641900 -0.000001 -7.464799 5.663470 -1.701881 -0.337091 23.700161 1.020139 -24.151898 2.304529 -2.448737 43.562177 -1.917749 -4.128687 -19.818054 1.368800 -0.000000 -29.554500
6.180734 16.197567 -8.707602 -169.050817 22.491894 -171.830986 -15.074833 1.997722 -3.158812 4.425678 17.733913 -28.991592 2.455066 6.562916 83.198396 1.940108 12.134314 -5.814298 0.220399 -0.000000 -4.640900 5.740476 -1.726815 -0.310055 23.585247 0.960212 -23.338755 2.333897 -2.386673 42.827683 -1.989895 -4.464522 -19.916792 1.437200 0.000000 -29.764001
6.247123 16.242253 -8.813666 -169.180067 22.227070 -171.866896 -14.877764 1.846028 -3.028825 3.752514 17.211989 -30.649696 2.363666 6.508410 83.132919 1.819539 11.400879 -7.637502 -0.106300 -0.000001 -2.445400 5.827934 -1.749836 -0.294045 23.396991 0.835715 -22.456344 2.371946 -2.312216 41.924831 -2.042542 -4.729645 -19.922518 1.481200 0.000000 -30.075400
6.312793 16.292980 -8.920971 -169.362220 21.961265 -171.927309 -14.665635 1.703057 -2.876873 3.030466 16.630380 -32.162773 2.230797 6.413669 82.711012 1.699423 10.608623 -9.094588 -0.336100 -0.000000 -0.899400 5.924994 -1.771494 -0.294163 23.134140 0.632929 -21.485894 2.420881 -2.224156 40.837774 -2.070661 -4.898511 -19.834599 1.495800 0.000000 -30.454401
6.377842 16.349138 -9.029641 -169.599133 21.702209 -172.019544 -14.438794 1.567434 -2.710637 2.268711 16.017984 -33.512912 2.062832 6.281818 81.944525 1.593502 9.870699 -10.225803 179.513200 -0.000000 -0.059000 6.031996 -1.792716 -0.311251 22.792787 0.345513 -20.415503 2.481067 -2.121750 39.559172 -2.070940 -4.956282 -19.650666 1.478300 -0.000000 -30.873800
6.442323 16.410202 -9.139909 -169.891711 21.457875 -172.144042 -14.196721 1.437573 -2.537807 1.468339 15.402963 -34.692605 1.865547 6.115975 80.846419 1.513811 9.284347 -11.090374 179.414599 0.000000 -0.559800 6.150644 -1.813689 -0.343426 22.365498 -0.023375 -19.245604 2.551084 -2.004715 38.089877 -2.041933 -4.899427 -19.365384 1.428100 0.000000 -31.320400
6.506769 16.475702 -9.251985 -170.247826 21.236410 -172.298812 -13.936972 1.312581 -2.365761 0.623026 14.810493 -35.701507 1.643668 5.918921 79.428271 1.469485 8.922416 -11.753905 179.340500 0.000000 -0.769100 6.285499 -1.833705 -0.387392 21.841154 -0.466143 -17.988074 2.627272 -1.873669 36.442460 -1.983428 -4.731745 -18.971908 1.346300 0.000000 -31.797200
6.571365 16.545021 -9.365974 -170.669349 21.044029 -172.481594 -13.658797 1.192167 -2.198895 -0.272544 14.262390 -36.542836 1.401669 5.692885 77.700094 1.465942 8.826108 -12.277412 179.269100 0.000000 -0.850500 6.439997 -1.853278 -0.436683 21.212421 -0.969105 -16.660919 2.704778 -1.730224 34.638830 -1.897227 -4.467054 -18.462557 1.236500 -0.000000 -32.321800
6.636342 16.617585 -9.482053 -171.157521 20.885908 -172.685797 -13.361140 1.076329 -2.040759 -1.223941 13.775376 -37.222949 1.143433 5.439723 75.666281 1.505002 9.004697 -12.707551 179.186200 0.000000 -0.932700 6.618470 -1.872560 -0.485104 20.473078 -1.516050 -15.290320 2.777806 -1.577172 32.710358 -1.786040 -4.122327 -17.830403 1.103701 0.000000 -32.922401
